<svg width="1200" height="680" viewBox="0 0 1200 680" fill="none" xmlns="http://www.w3.org/2000/svg">
  <style>
    text { font-family: -apple-system, BlinkMacSystemFont, "Segoe UI", "Apple SD Gothic Neo", "Noto Sans KR", sans-serif; }
    .title { font-size: 38px; font-weight: 850; fill: #102027; }
    .sub { font-size: 17px; font-weight: 500; fill: #5d6c73; }
    .h { font-size: 20px; font-weight: 850; fill: #15262D; }
    .t { font-size: 14px; font-weight: 650; fill: #5B6B72; }
    .mode { font-size: 16px; font-weight: 800; fill: #102027; }
  </style>
  <rect width="1200" height="680" rx="34" fill="#F8FAFA"/>
  <rect x="54" y="50" width="1092" height="580" rx="30" fill="white" stroke="#D7E2E5"/>
  <text x="92" y="112" class="title">인터랙티브 웹 스테이지 구조</text>
  <text x="94" y="147" class="sub">손 추적과 한국어 음성 명령을 하나의 action dispatcher로 모아 모드별 기능을 실행합니다.</text>

  <g transform="translate(92 232)">
    <rect width="210" height="240" rx="22" fill="#F2F8F8" stroke="#CFE1E2"/>
    <text x="26" y="48" class="h">입력</text>
    <text x="26" y="90" class="t">웹캠 손동작</text>
    <text x="26" y="122" class="t">마이크 음성</text>
    <text x="26" y="154" class="t">마우스 시뮬레이션</text>
  </g>
  <path d="M328 352H405" stroke="#7CAEB2" stroke-width="4"/><path d="M405 352l-12-8v16l12-8z" fill="#7CAEB2"/>
  <g transform="translate(430 222)">
    <rect width="250" height="260" rx="22" fill="#F6F8FF" stroke="#D5DDF2"/>
    <text x="28" y="52" class="h">인식 계층</text>
    <rect x="28" y="84" width="194" height="44" rx="12" fill="white" stroke="#D7DEEF"/>
    <text x="46" y="112" class="t">MediaPipe Hands</text>
    <rect x="28" y="146" width="194" height="44" rx="12" fill="white" stroke="#D7DEEF"/>
    <text x="46" y="174" class="t">한국어 명령 parser</text>
    <rect x="28" y="208" width="194" height="44" rx="12" fill="white" stroke="#D7DEEF"/>
    <text x="46" y="236" class="t">제스처 콤보 manager</text>
  </g>
  <path d="M705 352H782" stroke="#7CAEB2" stroke-width="4"/><path d="M782 352l-12-8v16l12-8z" fill="#7CAEB2"/>
  <g transform="translate(802 276)">
    <rect width="260" height="152" rx="24" fill="#EAF8F5" stroke="#BFE3DB"/>
    <text x="34" y="60" class="h">Action Dispatcher</text>
    <text x="34" y="96" class="t">명령과 제스처를 모드별 함수로 연결</text>
  </g>

  <g transform="translate(180 535)">
    <rect width="94" height="46" rx="14" fill="#FFFFFF" stroke="#D7E2E5"/><text x="31" y="29" class="mode">사진</text>
    <rect x="110" width="94" height="46" rx="14" fill="#FFFFFF" stroke="#D7E2E5"/><text x="31" y="29" class="mode">그림</text>
    <rect x="220" width="94" height="46" rx="14" fill="#FFFFFF" stroke="#D7E2E5"/><text x="31" y="29" class="mode">날씨</text>
    <rect x="330" width="94" height="46" rx="14" fill="#FFFFFF" stroke="#D7E2E5"/><text x="31" y="29" class="mode">효과</text>
    <rect x="440" width="94" height="46" rx="14" fill="#FFFFFF" stroke="#D7E2E5"/><text x="31" y="29" class="mode">게임</text>
    <rect x="550" width="94" height="46" rx="14" fill="#FFFFFF" stroke="#D7E2E5"/><text x="34" y="29" class="mode">3D</text>
    <rect x="660" width="94" height="46" rx="14" fill="#FFFFFF" stroke="#D7E2E5"/><text x="31" y="29" class="mode">음악</text>
    <rect x="770" width="94" height="46" rx="14" fill="#FFFFFF" stroke="#D7E2E5"/><text x="31" y="29" class="mode">설정</text>
  </g>
  <path d="M932 430V508" stroke="#7CAEB2" stroke-width="4"/><path d="M932 508l-8-12h16l-8 12z" fill="#7CAEB2"/>
</svg>
