<svg width="1200" height="680" viewBox="0 0 1200 680" fill="none" xmlns="http://www.w3.org/2000/svg">
  <style>
    text { font-family: -apple-system, BlinkMacSystemFont, "Segoe UI", "Apple SD Gothic Neo", "Noto Sans KR", sans-serif; }
    .title { font-size: 40px; font-weight: 800; fill: #102027; }
    .sub { font-size: 18px; font-weight: 500; fill: #5a6a72; }
    .cardTitle { font-size: 28px; font-weight: 850; fill: #102027; }
    .desc { font-size: 16px; font-weight: 600; fill: #596a72; }
    .tag { font-size: 14px; font-weight: 800; fill: #0f766e; }
  </style>
  <rect width="1200" height="680" rx="34" fill="#FAFBFB"/>
  <rect x="58" y="56" width="1084" height="568" rx="30" fill="#FFFFFF" stroke="#D9E4E7"/>
  <text x="92" y="122" class="title">처음 화면에서 선택하는 3가지 입구</text>
  <text x="94" y="158" class="sub">사용자는 같은 프로젝트 안에서 목적에 맞는 모드를 바로 고릅니다.</text>

  <g transform="translate(92 225)">
    <rect width="305" height="310" rx="24" fill="#F2F8F8" stroke="#CFE1E2"/>
    <circle cx="62" cy="64" r="30" fill="#DDF3F0"/>
    <path d="M48 65h28M62 51v28" stroke="#0f766e" stroke-width="5" stroke-linecap="round"/>
    <text x="34" y="128" class="tag">손동작으로 화면 조작</text>
    <text x="34" y="172" class="cardTitle">PC 제어</text>
    <text x="34" y="218" class="desc">검지 이동, 핀치 클릭,</text>
    <text x="34" y="244" class="desc">엄지 스크롤, 슬라이드 넘김</text>
  </g>

  <g transform="translate(448 225)">
    <rect width="305" height="310" rx="24" fill="#F6F8FF" stroke="#D5DDF2"/>
    <circle cx="62" cy="64" r="30" fill="#E5ECFF"/>
    <path d="M45 73c20-25 47-25 67 0M52 55h52" stroke="#315C9A" stroke-width="5" stroke-linecap="round"/>
    <text x="34" y="128" class="tag">양손과 팔 동작을 문장으로</text>
    <text x="34" y="172" class="cardTitle">수화 문장</text>
    <text x="34" y="218" class="desc">gloss 토큰 인식 후</text>
    <text x="34" y="244" class="desc">한국어 문장 후보 출력</text>
  </g>

  <g transform="translate(804 225)">
    <rect width="305" height="310" rx="24" fill="#F2FBF5" stroke="#D3E8D8"/>
    <circle cx="62" cy="64" r="30" fill="#DCF6E4"/>
    <path d="M48 76c28-38 42-38 70 0M52 64h62" stroke="#16834A" stroke-width="5" stroke-linecap="round"/>
    <text x="34" y="128" class="tag">한국어 음성 + 손동작 체험</text>
    <text x="34" y="172" class="cardTitle">인터랙티브</text>
    <text x="34" y="218" class="desc">사진, 그림, 날씨, 효과,</text>
    <text x="34" y="244" class="desc">게임, 3D, 음악 제어</text>
  </g>
</svg>
